<mxfile host="app.diagrams.net" modified="2024-01-02T14:23:21.586Z" agent="Mozilla/5.0 (Windows NT 10.0; Win64; x64) AppleWebKit/537.36 (KHTML, like Gecko) Chrome/120.0.0.0 Safari/537.36" etag="GJQ1GitdTTYexoR6D5mr" version="22.1.16" type="device">
  <diagram name="Page-1" id="l2MnLEIytPlItNJuot2N">
    <mxGraphModel dx="4350" dy="1767" grid="1" gridSize="10" guides="1" tooltips="1" connect="1" arrows="1" fold="1" page="1" pageScale="1" pageWidth="850" pageHeight="1100" math="0" shadow="0">
      <root>
        <mxCell id="0" />
        <mxCell id="1" parent="0" />
        <mxCell id="yM7iVymJcSh83I6wm8LX-3" value="" style="edgeStyle=orthogonalEdgeStyle;rounded=0;orthogonalLoop=1;jettySize=auto;html=1;" edge="1" parent="1" source="yM7iVymJcSh83I6wm8LX-1" target="yM7iVymJcSh83I6wm8LX-2">
          <mxGeometry relative="1" as="geometry" />
        </mxCell>
        <mxCell id="yM7iVymJcSh83I6wm8LX-1" value="Start" style="strokeWidth=2;html=1;shape=mxgraph.flowchart.terminator;whiteSpace=wrap;" vertex="1" parent="1">
          <mxGeometry x="-410" y="110" width="100" height="60" as="geometry" />
        </mxCell>
        <mxCell id="yM7iVymJcSh83I6wm8LX-5" value="" style="edgeStyle=orthogonalEdgeStyle;rounded=0;orthogonalLoop=1;jettySize=auto;html=1;" edge="1" parent="1" source="yM7iVymJcSh83I6wm8LX-2" target="yM7iVymJcSh83I6wm8LX-6">
          <mxGeometry relative="1" as="geometry">
            <mxPoint x="-360" y="370" as="targetPoint" />
          </mxGeometry>
        </mxCell>
        <mxCell id="yM7iVymJcSh83I6wm8LX-2" value="int n,i,j,int array[100]" style="rounded=1;whiteSpace=wrap;html=1;strokeWidth=2;" vertex="1" parent="1">
          <mxGeometry x="-420" y="230" width="120" height="60" as="geometry" />
        </mxCell>
        <mxCell id="yM7iVymJcSh83I6wm8LX-8" value="" style="edgeStyle=orthogonalEdgeStyle;rounded=0;orthogonalLoop=1;jettySize=auto;html=1;" edge="1" parent="1" source="yM7iVymJcSh83I6wm8LX-6" target="yM7iVymJcSh83I6wm8LX-7">
          <mxGeometry relative="1" as="geometry" />
        </mxCell>
        <mxCell id="yM7iVymJcSh83I6wm8LX-6" value="input n, array[n]" style="shape=parallelogram;html=1;strokeWidth=2;perimeter=parallelogramPerimeter;whiteSpace=wrap;rounded=1;arcSize=12;size=0.23;" vertex="1" parent="1">
          <mxGeometry x="-420" y="340" width="120" height="70" as="geometry" />
        </mxCell>
        <mxCell id="yM7iVymJcSh83I6wm8LX-10" value="" style="edgeStyle=orthogonalEdgeStyle;rounded=0;orthogonalLoop=1;jettySize=auto;html=1;" edge="1" parent="1" source="yM7iVymJcSh83I6wm8LX-7" target="yM7iVymJcSh83I6wm8LX-9">
          <mxGeometry relative="1" as="geometry" />
        </mxCell>
        <mxCell id="yM7iVymJcSh83I6wm8LX-7" value="i=0, j=0" style="whiteSpace=wrap;html=1;strokeWidth=2;rounded=1;arcSize=12;" vertex="1" parent="1">
          <mxGeometry x="-420" y="470" width="120" height="60" as="geometry" />
        </mxCell>
        <mxCell id="yM7iVymJcSh83I6wm8LX-12" value="" style="edgeStyle=orthogonalEdgeStyle;rounded=0;orthogonalLoop=1;jettySize=auto;html=1;" edge="1" parent="1" source="yM7iVymJcSh83I6wm8LX-9" target="yM7iVymJcSh83I6wm8LX-11">
          <mxGeometry relative="1" as="geometry" />
        </mxCell>
        <mxCell id="yM7iVymJcSh83I6wm8LX-14" value="" style="edgeStyle=orthogonalEdgeStyle;rounded=0;orthogonalLoop=1;jettySize=auto;html=1;" edge="1" parent="1" source="yM7iVymJcSh83I6wm8LX-9" target="yM7iVymJcSh83I6wm8LX-13">
          <mxGeometry relative="1" as="geometry" />
        </mxCell>
        <mxCell id="yM7iVymJcSh83I6wm8LX-9" value="i &amp;lt; n-1" style="rhombus;whiteSpace=wrap;html=1;strokeWidth=2;rounded=1;arcSize=12;" vertex="1" parent="1">
          <mxGeometry x="-400" y="600" width="80" height="80" as="geometry" />
        </mxCell>
        <mxCell id="yM7iVymJcSh83I6wm8LX-33" value="" style="edgeStyle=orthogonalEdgeStyle;rounded=0;orthogonalLoop=1;jettySize=auto;html=1;" edge="1" parent="1" source="yM7iVymJcSh83I6wm8LX-11" target="yM7iVymJcSh83I6wm8LX-32">
          <mxGeometry relative="1" as="geometry" />
        </mxCell>
        <mxCell id="yM7iVymJcSh83I6wm8LX-11" value="Output Array" style="shape=parallelogram;perimeter=parallelogramPerimeter;whiteSpace=wrap;html=1;fixedSize=1;strokeWidth=2;rounded=1;arcSize=12;" vertex="1" parent="1">
          <mxGeometry x="-95" y="610" width="120" height="60" as="geometry" />
        </mxCell>
        <mxCell id="yM7iVymJcSh83I6wm8LX-18" style="edgeStyle=orthogonalEdgeStyle;rounded=0;orthogonalLoop=1;jettySize=auto;html=1;" edge="1" parent="1" source="yM7iVymJcSh83I6wm8LX-13" target="yM7iVymJcSh83I6wm8LX-17">
          <mxGeometry relative="1" as="geometry" />
        </mxCell>
        <mxCell id="yM7iVymJcSh83I6wm8LX-23" value="" style="edgeStyle=orthogonalEdgeStyle;rounded=0;orthogonalLoop=1;jettySize=auto;html=1;" edge="1" parent="1" source="yM7iVymJcSh83I6wm8LX-13" target="yM7iVymJcSh83I6wm8LX-22">
          <mxGeometry relative="1" as="geometry" />
        </mxCell>
        <mxCell id="yM7iVymJcSh83I6wm8LX-13" value="j &amp;lt; n -1" style="rhombus;whiteSpace=wrap;html=1;strokeWidth=2;rounded=1;arcSize=12;" vertex="1" parent="1">
          <mxGeometry x="-400" y="830" width="80" height="80" as="geometry" />
        </mxCell>
        <mxCell id="yM7iVymJcSh83I6wm8LX-20" style="edgeStyle=orthogonalEdgeStyle;rounded=0;orthogonalLoop=1;jettySize=auto;html=1;entryX=0;entryY=0.5;entryDx=0;entryDy=0;" edge="1" parent="1" source="yM7iVymJcSh83I6wm8LX-17" target="yM7iVymJcSh83I6wm8LX-9">
          <mxGeometry relative="1" as="geometry">
            <Array as="points">
              <mxPoint x="-520" y="640" />
            </Array>
          </mxGeometry>
        </mxCell>
        <mxCell id="yM7iVymJcSh83I6wm8LX-17" value="i++" style="whiteSpace=wrap;html=1;strokeWidth=2;rounded=1;arcSize=12;" vertex="1" parent="1">
          <mxGeometry x="-580" y="750" width="110" height="50" as="geometry" />
        </mxCell>
        <mxCell id="yM7iVymJcSh83I6wm8LX-25" value="" style="edgeStyle=orthogonalEdgeStyle;rounded=0;orthogonalLoop=1;jettySize=auto;html=1;" edge="1" parent="1" source="yM7iVymJcSh83I6wm8LX-22" target="yM7iVymJcSh83I6wm8LX-24">
          <mxGeometry relative="1" as="geometry" />
        </mxCell>
        <mxCell id="yM7iVymJcSh83I6wm8LX-30" value="" style="edgeStyle=orthogonalEdgeStyle;rounded=0;orthogonalLoop=1;jettySize=auto;html=1;" edge="1" parent="1" source="yM7iVymJcSh83I6wm8LX-22" target="yM7iVymJcSh83I6wm8LX-29">
          <mxGeometry relative="1" as="geometry" />
        </mxCell>
        <mxCell id="yM7iVymJcSh83I6wm8LX-22" value="array[ j ] &amp;gt;&lt;br&gt;array[ j+1]" style="rhombus;whiteSpace=wrap;html=1;strokeWidth=2;rounded=1;arcSize=12;" vertex="1" parent="1">
          <mxGeometry x="-402.5" y="990" width="85" height="80" as="geometry" />
        </mxCell>
        <mxCell id="yM7iVymJcSh83I6wm8LX-26" style="edgeStyle=orthogonalEdgeStyle;rounded=0;orthogonalLoop=1;jettySize=auto;html=1;entryX=1;entryY=0.5;entryDx=0;entryDy=0;" edge="1" parent="1" source="yM7iVymJcSh83I6wm8LX-24" target="yM7iVymJcSh83I6wm8LX-13">
          <mxGeometry relative="1" as="geometry">
            <Array as="points">
              <mxPoint x="-200" y="870" />
            </Array>
          </mxGeometry>
        </mxCell>
        <mxCell id="yM7iVymJcSh83I6wm8LX-24" value="j++" style="whiteSpace=wrap;html=1;strokeWidth=2;rounded=1;arcSize=12;" vertex="1" parent="1">
          <mxGeometry x="-255" y="1000" width="120" height="60" as="geometry" />
        </mxCell>
        <mxCell id="yM7iVymJcSh83I6wm8LX-31" style="edgeStyle=orthogonalEdgeStyle;rounded=0;orthogonalLoop=1;jettySize=auto;html=1;entryX=0.5;entryY=1;entryDx=0;entryDy=0;" edge="1" parent="1" source="yM7iVymJcSh83I6wm8LX-29" target="yM7iVymJcSh83I6wm8LX-24">
          <mxGeometry relative="1" as="geometry" />
        </mxCell>
        <mxCell id="yM7iVymJcSh83I6wm8LX-29" value="Tukar aray[ j ], array&amp;nbsp; &amp;nbsp;[ j+1]" style="whiteSpace=wrap;html=1;strokeWidth=2;rounded=1;arcSize=12;" vertex="1" parent="1">
          <mxGeometry x="-420" y="1190" width="120" height="60" as="geometry" />
        </mxCell>
        <mxCell id="yM7iVymJcSh83I6wm8LX-32" value="End" style="strokeWidth=2;html=1;shape=mxgraph.flowchart.terminator;whiteSpace=wrap;" vertex="1" parent="1">
          <mxGeometry x="-85" y="745" width="100" height="60" as="geometry" />
        </mxCell>
        <mxCell id="yM7iVymJcSh83I6wm8LX-34" value="&lt;font style=&quot;font-size: 24px;&quot;&gt;Flowchart Bubble Short&lt;br&gt;Arsy Syamil Hananan T&lt;/font&gt;" style="text;html=1;strokeColor=none;fillColor=none;align=center;verticalAlign=middle;whiteSpace=wrap;rounded=0;" vertex="1" parent="1">
          <mxGeometry x="-210" y="140" width="400" height="120" as="geometry" />
        </mxCell>
      </root>
    </mxGraphModel>
  </diagram>
</mxfile>
